<svg xmlns="http://www.w3.org/2000/svg" width="1200" height="820" viewBox="0 0 1200 820">
<rect width="100%" height="100%" fill="white"/>
<style>text{font-family:Arial,sans-serif;fill:#222}.axis{stroke:#555;stroke-width:1}.grid{stroke:#ddd;stroke-width:1}.med{fill:none;stroke-width:2}.p90{fill:none;stroke-width:2;stroke-dasharray:5 4}</style>
<text x="24" y="28" font-size="20" font-weight="bold">End-to-end degradation curves — median solid, p90 dashed</text>
<text x="70" y="54" font-size="15">template_variation_fraction</text>
<line class="axis" x1="70" y1="70" x2="70" y2="390"/>
<line class="axis" x1="70" y1="390" x2="610" y2="390"/>
<line class="grid" x1="70" y1="390.0" x2="610" y2="390.0"/>
<text x="62" y="394.0" text-anchor="end" font-size="10">0.0</text>
<line class="grid" x1="70" y1="310.0" x2="610" y2="310.0"/>
<text x="62" y="314.0" text-anchor="end" font-size="10">1.2</text>
<line class="grid" x1="70" y1="230.0" x2="610" y2="230.0"/>
<text x="62" y="234.0" text-anchor="end" font-size="10">2.3</text>
<line class="grid" x1="70" y1="150.0" x2="610" y2="150.0"/>
<text x="62" y="154.0" text-anchor="end" font-size="10">3.5</text>
<line class="grid" x1="70" y1="70.0" x2="610" y2="70.0"/>
<text x="62" y="74.0" text-anchor="end" font-size="10">4.7</text>
<text x="70.0" y="407" text-anchor="middle" font-size="9">0</text>
<text x="178.0" y="407" text-anchor="middle" font-size="9">0.025</text>
<text x="286.0" y="407" text-anchor="middle" font-size="9">0.05</text>
<text x="394.0" y="407" text-anchor="middle" font-size="9">0.075</text>
<text x="502.0" y="407" text-anchor="middle" font-size="9">0.1</text>
<text x="610.0" y="407" text-anchor="middle" font-size="9">0.15</text>
<polyline class="med" stroke="#1565c0" points="70.0,342.2 178.0,326.7 286.0,310.4 394.0,308.1 502.0,292.5 610.0,262.0"/>
<polyline class="p90" stroke="#1565c0" points="70.0,295.7 178.0,285.3 286.0,244.6 394.0,205.2 502.0,168.5 610.0,144.3"/>
<polyline class="med" stroke="#ef6c00" points="70.0,336.8 178.0,326.0 286.0,327.9 394.0,311.2 502.0,288.6 610.0,285.0"/>
<polyline class="p90" stroke="#ef6c00" points="70.0,295.2 178.0,291.5 286.0,260.7 394.0,197.6 502.0,179.8 610.0,172.3"/>
<polyline class="med" stroke="#2e7d32" points="70.0,336.2 178.0,327.8 286.0,327.4 394.0,297.3 502.0,290.5 610.0,263.1"/>
<polyline class="p90" stroke="#2e7d32" points="70.0,276.3 178.0,257.4 286.0,244.9 394.0,237.9 502.0,199.0 610.0,99.1"/>
<polyline class="med" stroke="#8e24aa" points="70.0,341.6 178.0,337.5 286.0,321.3 394.0,320.9 502.0,310.7 610.0,276.2"/>
<polyline class="p90" stroke="#8e24aa" points="70.0,272.2 178.0,279.3 286.0,262.7 394.0,209.0 502.0,173.1 610.0,108.8"/>
<text x="660" y="54" font-size="15">photometric_noise_sigma_dn</text>
<line class="axis" x1="660" y1="70" x2="660" y2="390"/>
<line class="axis" x1="660" y1="390" x2="1200" y2="390"/>
<line class="grid" x1="660" y1="390.0" x2="1200" y2="390.0"/>
<text x="652" y="394.0" text-anchor="end" font-size="10">0.0</text>
<line class="grid" x1="660" y1="310.0" x2="1200" y2="310.0"/>
<text x="652" y="314.0" text-anchor="end" font-size="10">0.6</text>
<line class="grid" x1="660" y1="230.0" x2="1200" y2="230.0"/>
<text x="652" y="234.0" text-anchor="end" font-size="10">1.1</text>
<line class="grid" x1="660" y1="150.0" x2="1200" y2="150.0"/>
<text x="652" y="154.0" text-anchor="end" font-size="10">1.7</text>
<line class="grid" x1="660" y1="70.0" x2="1200" y2="70.0"/>
<text x="652" y="74.0" text-anchor="end" font-size="10">2.2</text>
<text x="660.0" y="407" text-anchor="middle" font-size="9">0</text>
<text x="768.0" y="407" text-anchor="middle" font-size="9">0.6</text>
<text x="876.0" y="407" text-anchor="middle" font-size="9">1.2</text>
<text x="984.0" y="407" text-anchor="middle" font-size="9">2.4</text>
<text x="1092.0" y="407" text-anchor="middle" font-size="9">4.8</text>
<text x="1200.0" y="407" text-anchor="middle" font-size="9">9.6</text>
<polyline class="med" stroke="#1565c0" points="660.0,289.2 768.0,289.2 876.0,289.2 984.0,289.2 1092.0,267.4"/>
<polyline class="p90" stroke="#1565c0" points="660.0,191.3 768.0,191.3 876.0,191.3 984.0,191.3 1092.0,190.5"/>
<polyline class="med" stroke="#ef6c00" points="660.0,274.7 768.0,286.6 876.0,277.8 984.0,273.9 1092.0,266.6"/>
<polyline class="p90" stroke="#ef6c00" points="660.0,206.7 768.0,186.7 876.0,190.3 984.0,160.6 1092.0,174.5"/>
<polyline class="med" stroke="#2e7d32" points="660.0,276.5 768.0,276.5 876.0,276.5 984.0,276.5 1092.0,266.2"/>
<polyline class="p90" stroke="#2e7d32" points="660.0,150.4 768.0,150.4 876.0,150.4 984.0,150.4 1092.0,99.1"/>
<polyline class="med" stroke="#8e24aa" points="660.0,292.9 768.0,302.2 876.0,288.0 984.0,286.7 1092.0,289.9"/>
<polyline class="p90" stroke="#8e24aa" points="660.0,160.7 768.0,162.2 876.0,141.8 984.0,155.0 1092.0,166.7"/>
<text x="70" y="424" font-size="15">radar_residual_mm</text>
<line class="axis" x1="70" y1="440" x2="70" y2="760"/>
<line class="axis" x1="70" y1="760" x2="610" y2="760"/>
<line class="grid" x1="70" y1="760.0" x2="610" y2="760.0"/>
<text x="62" y="764.0" text-anchor="end" font-size="10">0.0</text>
<line class="grid" x1="70" y1="680.0" x2="610" y2="680.0"/>
<text x="62" y="684.0" text-anchor="end" font-size="10">1.5</text>
<line class="grid" x1="70" y1="600.0" x2="610" y2="600.0"/>
<text x="62" y="604.0" text-anchor="end" font-size="10">3.0</text>
<line class="grid" x1="70" y1="520.0" x2="610" y2="520.0"/>
<text x="62" y="524.0" text-anchor="end" font-size="10">4.6</text>
<line class="grid" x1="70" y1="440.0" x2="610" y2="440.0"/>
<text x="62" y="444.0" text-anchor="end" font-size="10">6.1</text>
<text x="70.0" y="777" text-anchor="middle" font-size="9">-40</text>
<text x="160.0" y="777" text-anchor="middle" font-size="9">-20</text>
<text x="250.0" y="777" text-anchor="middle" font-size="9">-10</text>
<text x="340.0" y="777" text-anchor="middle" font-size="9">0</text>
<text x="430.0" y="777" text-anchor="middle" font-size="9">10</text>
<text x="520.0" y="777" text-anchor="middle" font-size="9">20</text>
<text x="610.0" y="777" text-anchor="middle" font-size="9">40</text>
<polyline class="med" stroke="#1565c0" points="70.0,520.5 160.0,637.2 250.0,693.9 340.0,723.3 430.0,706.2 520.0,645.2 610.0,539.0"/>
<polyline class="p90" stroke="#1565c0" points="70.0,469.1 160.0,586.5 250.0,639.8 340.0,687.7 430.0,653.6 520.0,596.6 610.0,470.6"/>
<polyline class="med" stroke="#ef6c00" points="70.0,531.1 160.0,632.2 250.0,697.0 340.0,719.2 430.0,704.5 520.0,649.1 610.0,549.6"/>
<polyline class="p90" stroke="#ef6c00" points="70.0,480.0 160.0,592.8 250.0,647.7 340.0,687.3 430.0,641.0 520.0,581.1 610.0,470.6"/>
<polyline class="med" stroke="#2e7d32" points="70.0,530.3 160.0,639.2 250.0,697.9 340.0,718.7 430.0,695.5 520.0,637.4 610.0,543.1"/>
<polyline class="p90" stroke="#2e7d32" points="70.0,477.3 160.0,584.1 250.0,644.4 340.0,672.8 430.0,644.8 520.0,595.1 610.0,486.7"/>
<polyline class="med" stroke="#8e24aa" points="70.0,539.8 160.0,645.6 250.0,687.8 340.0,722.9 430.0,693.5 520.0,646.4 610.0,547.1"/>
<polyline class="p90" stroke="#8e24aa" points="70.0,492.1 160.0,610.1 250.0,650.8 340.0,669.7 430.0,651.8 520.0,608.3 610.0,499.2"/>
<text x="660" y="424" font-size="15">sync_offset_us</text>
<line class="axis" x1="660" y1="440" x2="660" y2="760"/>
<line class="axis" x1="660" y1="760" x2="1200" y2="760"/>
<line class="grid" x1="660" y1="760.0" x2="1200" y2="760.0"/>
<text x="652" y="764.0" text-anchor="end" font-size="10">0.0</text>
<line class="grid" x1="660" y1="680.0" x2="1200" y2="680.0"/>
<text x="652" y="684.0" text-anchor="end" font-size="10">6.0</text>
<line class="grid" x1="660" y1="600.0" x2="1200" y2="600.0"/>
<text x="652" y="604.0" text-anchor="end" font-size="10">11.9</text>
<line class="grid" x1="660" y1="520.0" x2="1200" y2="520.0"/>
<text x="652" y="524.0" text-anchor="end" font-size="10">17.9</text>
<line class="grid" x1="660" y1="440.0" x2="1200" y2="440.0"/>
<text x="652" y="444.0" text-anchor="end" font-size="10">23.8</text>
<text x="660.0" y="777" text-anchor="middle" font-size="9">-1000</text>
<text x="750.0" y="777" text-anchor="middle" font-size="9">-500</text>
<text x="840.0" y="777" text-anchor="middle" font-size="9">-250</text>
<text x="930.0" y="777" text-anchor="middle" font-size="9">0</text>
<text x="1020.0" y="777" text-anchor="middle" font-size="9">250</text>
<text x="1110.0" y="777" text-anchor="middle" font-size="9">500</text>
<text x="1200.0" y="777" text-anchor="middle" font-size="9">1000</text>
<polyline class="med" stroke="#1565c0" points="660.0,496.2 750.0,628.6 840.0,695.6 930.0,750.6 1020.0,700.1"/>
<polyline class="p90" stroke="#1565c0" points="660.0,469.1 750.0,606.3 840.0,681.8 930.0,741.5 1020.0,690.6"/>
<polyline class="med" stroke="#ef6c00" points="660.0,506.3 750.0,634.1 840.0,693.5 930.0,749.5 1020.0,699.8"/>
<polyline class="p90" stroke="#ef6c00" points="660.0,477.1 750.0,612.5 840.0,677.8 930.0,741.4 1020.0,685.4"/>
<polyline class="med" stroke="#2e7d32" points="660.0,518.2 750.0,636.6 840.0,698.8 930.0,749.4 1020.0,700.8"/>
<polyline class="p90" stroke="#2e7d32" points="660.0,484.3 750.0,615.4 840.0,681.2 930.0,737.7 1020.0,687.1"/>
<polyline class="med" stroke="#8e24aa" points="660.0,518.2 750.0,639.3 840.0,697.6 930.0,750.5 1020.0,704.6"/>
<polyline class="p90" stroke="#8e24aa" points="660.0,488.1 750.0,622.9 840.0,685.3 930.0,736.9 1020.0,683.1"/>
<line x1="20" y1="805" x2="44" y2="805" stroke="#1565c0" stroke-width="3"/>
<text x="50" y="809" font-size="11">poc_driver / strobed_10us</text>
<line x1="310" y1="805" x2="334" y2="805" stroke="#ef6c00" stroke-width="3"/>
<text x="340" y="809" font-size="11">poc_driver / ambient_500us</text>
<line x1="600" y1="805" x2="624" y2="805" stroke="#2e7d32" stroke-width="3"/>
<text x="630" y="809" font-size="11">poc_7iron / strobed_10us</text>
<line x1="890" y1="805" x2="914" y2="805" stroke="#8e24aa" stroke-width="3"/>
<text x="920" y="809" font-size="11">poc_7iron / ambient_500us</text>
</svg>
